# xmcd
#
# Track frame offsets:
#	150
#	12622
#	28600
#	41151
#	56849
#	77150
#	87858
#	101127
#	124014
#	140274
#	152270
#	164415
#	176614
#	197094
#	209447
#	223414
#	234613
#	247596
#	257964
#	281572
#	303825
#	315883
#	328486
#	339326
#
# Disc length: 4743 seconds
#
# Revision: 6
# Processed by: cddbd v1.5.2PL0 Copyright (c) Steve Scherf et al.
# Submitted via: EZCDAudioConverter 2.1.7.1
#
DISCID=59128518
DTITLE=V/A - Children Of Nuggets 2/4
DYEAR=2005
DGENRE=
TTITLE0=The Godfathers - This Damn Nation
TTITLE1=Dream Syndicate - Tell Me When It's Over
TTITLE2=The Prisoners - Whenever I'm Gone
TTITLE3=The Cramps - New Kind Of Kick
TTITLE4=Long Ryders - And She Rides
TTITLE5=Revillos - Motorbike Beat
TTITLE6=The Vipers - Tears (Only Dry)
TTITLE7=Dukes Of Stratosphear - 25 O'Clock
TTITLE8=Lyres - Don't Give It Up Now
TTITLE9=Chris Stamey and The dB's - If And When
TTITLE10=Untamed Youth - Pabst Blue Ribbon
TTITLE11=The La's - There She Goes
TTITLE12=Vibrasonic - Kingsley J.
TTITLE13=The Crawdaddys - I Can Never Tell
TTITLE14=Green Telescope - Make Me Stay
TTITLE15=The Plimsouls - Everyday Things
TTITLE16=Soft Boys - I Wanna Destroy You
TTITLE17=Mickey and The Milkshakes - It's You
TTITLE18=The Posies - Apology
TTITLE19=Bevis Frond - Lights Are Changing
TTITLE20=The Droogs - Ahead Of My Time
TTITLE21=The Funseekers - Welcome To My Love
TTITLE22=Revolving Paint Dream - Flowers In The Sky
TTITLE23=Teenage Fanclub - Metal Baby
EXTD=
EXTT0=
EXTT1=
EXTT2=
EXTT3=
EXTT4=
EXTT5=
EXTT6=
EXTT7=
EXTT8=
EXTT9=
EXTT10=
EXTT11=
EXTT12=
EXTT13=
EXTT14=
EXTT15=
EXTT16=
EXTT17=
EXTT18=
EXTT19=
EXTT20=
EXTT21=
EXTT22=
EXTT23=
PLAYORDER=
